<svg xmlns="http://www.w3.org/2000/svg" viewBox="0 0 100 100"><ellipse cx="50" cy="86" rx="40" ry="6" fill="#000" opacity=".12"/><g transform="translate(68,62) scale(0.78)"><path d="M-26,6 C-60,4 -80,-14 -78,-40 C-70,-26 -54,-14 -30,-8 Z" fill="#c8562a"/><path d="M-40,2 q-6,8 0,14" stroke="#8a3a1a" stroke-width="5" fill="none"/><path d="M-49,-3 q-6,8 0,14" stroke="#8a3a1a" stroke-width="5" fill="none"/><path d="M-58,-8 q-6,8 0,14" stroke="#8a3a1a" stroke-width="5" fill="none"/><path d="M-67,-13 q-6,8 0,14" stroke="#8a3a1a" stroke-width="5" fill="none"/><ellipse cx="0" cy="0" rx="30" ry="20" fill="#c8562a"/><ellipse cx="0" cy="10" rx="24" ry="10" fill="#3a2418"/><circle cx="4" cy="-28" r="22" fill="#c8562a"/><path d="M-14,-44 L-20,-58 L-6,-50 Z M22,-44 L28,-58 L14,-50 Z" fill="#c8562a"/><path d="M-14,-46 L-17,-54 L-9,-49 Z M22,-46 L25,-54 L17,-49 Z" fill="#fff"/><ellipse cx="-6" cy="-24" rx="7" ry="6" fill="#fff"/><ellipse cx="14" cy="-24" rx="7" ry="6" fill="#fff"/><ellipse cx="4" cy="-16" rx="9" ry="6" fill="#fff"/><ellipse cx="-4" cy="-32" rx="5" ry="4" fill="#fff"/><ellipse cx="12" cy="-32" rx="5" ry="4" fill="#fff"/><circle cx="-4" cy="-28" r="3" fill="#222"/><circle cx="12" cy="-28" r="3" fill="#222"/><circle cx="4" cy="-19" r="2.6" fill="#222"/><rect x="-22" y="14" width="9" height="12" rx="4" fill="#2a1a12"/><rect x="14" y="14" width="9" height="12" rx="4" fill="#2a1a12"/></g></svg>